<?xml version="1.0" encoding="UTF-8" standalone="no"?>
<!-- Generator: Adobe Illustrator 13.0.1, SVG Export Plug-In . SVG Version: 6.00 Build 14948)  -->

<svg
   xmlns:dc="http://purl.org/dc/elements/1.1/"
   xmlns:cc="http://creativecommons.org/ns#"
   xmlns:rdf="http://www.w3.org/1999/02/22-rdf-syntax-ns#"
   xmlns:svg="http://www.w3.org/2000/svg"
   xmlns="http://www.w3.org/2000/svg"
   xmlns:sodipodi="http://sodipodi.sourceforge.net/DTD/sodipodi-0.dtd"
   xmlns:inkscape="http://www.inkscape.org/namespaces/inkscape"
   version="1.1"
   id="Capa_1"
   x="0px"
   y="0px"
   width="200px"
   height="75px"
   viewBox="-23.858 -13.136 200 75"
   enable-background="new -23.858 -13.136 200 75"
   xml:space="preserve"
   inkscape:version="0.91 r13725"
   sodipodi:docname="logo-long.svg"
   inkscape:export-filename="/Users/rodrigdi/Desktop/opendata_logo_next.png"
   inkscape:export-xdpi="90"
   inkscape:export-ydpi="90"><metadata
     id="metadata4250"><rdf:RDF><cc:Work
         rdf:about=""><dc:format>image/svg+xml</dc:format><dc:type
           rdf:resource="http://purl.org/dc/dcmitype/StillImage" /><dc:title></dc:title></cc:Work></rdf:RDF></metadata><defs
     id="defs4248" /><sodipodi:namedview
     pagecolor="#ffffff"
     bordercolor="#666666"
     borderopacity="1"
     objecttolerance="10"
     gridtolerance="10"
     guidetolerance="10"
     inkscape:pageopacity="0"
     inkscape:pageshadow="2"
     inkscape:window-width="2556"
     inkscape:window-height="1383"
     id="namedview4246"
     showgrid="false"
     inkscape:snap-text-baseline="true"
     inkscape:zoom="9.1171159"
     inkscape:cx="102.51475"
     inkscape:cy="24.353091"
     inkscape:window-x="1688"
     inkscape:window-y="0"
     inkscape:window-maximized="0"
     inkscape:current-layer="Capa_1"
     inkscape:snap-nodes="false" /><rect
     x="131.99881"
     y="37.985893"
     width="28.181017"
     height="10.64608"
     id="rect4234"
     style="fill:none;stroke:none" /><g
     enable-background="new    "
     id="g4236"
     inkscape:export-xdpi="90"
     inkscape:export-ydpi="90"
     style="opacity:1;fill:#ffffff;fill-opacity:1;stroke:none"
     transform="matrix(1.0841354,0,0,0.93403058,-32.18591,-9.0602924)"><path
       d="m 155.892,51.95 c -0.03,-0.63 -0.56,-1.1 -1.189,-1.1 -1.669,0 -1.8,2.169 -1.8,3.389 0,1.189 0.121,3.288 1.74,3.288 0.749,0 1.318,-0.56 1.349,-1.3 l 0.47,0 c -0.1,1.06 -0.789,1.699 -1.859,1.699 -1.898,0 -2.198,-2.179 -2.198,-3.638 0,-1.529 0.271,-3.838 2.299,-3.838 0.88,0 1.579,0.619 1.659,1.499 l -0.471,0 z"
       id="path4238"
       style="fill:#ffffff;fill-opacity:1;stroke:none"
       inkscape:connector-curvature="0" /><path
       d="m 161.471,50.991 -3.048,0 0,2.898 2.188,0 0,0.399 -2.188,0 0,3.099 3.118,0 0,0.399 -3.588,0 0,-7.196 3.518,0 0,0.401 z"
       id="path4240"
       style="fill:#ffffff;fill-opacity:1;stroke:none"
       inkscape:connector-curvature="0" /><path
       d="m 162.883,50.591 1.709,0 c 1.209,0 1.909,0.81 1.909,1.979 0,0.909 -0.51,1.719 -1.39,1.999 l 1.939,3.218 -0.59,0 -1.789,-3.108 -1.318,0 0,3.108 -0.471,0 0,-7.196 z m 0.471,3.688 1.168,0 c 0.641,0 1.48,-0.49 1.48,-1.749 0,-0.84 -0.4,-1.539 -1.41,-1.539 l -1.238,0 0,3.288 z"
       id="path4242"
       style="fill:#ffffff;fill-opacity:1;stroke:none"
       inkscape:connector-curvature="0" /><path
       d="m 168.183,51.24 -0.021,0.021 0,6.526 -0.469,0 0,-7.196 0.679,0 2.448,6.167 0.021,-0.021 0,-6.146 0.47,0 0,7.267 -0.49,0 -2.638,-6.618 z"
       id="path4244"
       style="opacity:0;fill:#ffffff;fill-opacity:1;stroke:none"
       inkscape:connector-curvature="0" /></g><path
     style="fill:#ffffff;fill-opacity:1;stroke:none;stroke-width:0;stroke-linejoin:round;stroke-miterlimit:4;stroke-dasharray:none;stroke-opacity:0.92901881"
     d="m 5.68187,34.034569 c -3.605634,-0.717178 -5.92938001,-3.137975 -6.7291028,-7.010141 -0.2634511,-1.275598 -0.3236189,-4.058683 -0.1168974,-5.407109 0.42437067,-2.768137 1.45971377,-4.762476 3.1926265,-6.149828 2.0577732,-1.647434 5.0930588,-2.199164 7.8894836,-1.434087 2.2086531,0.604268 4.0654461,2.139592 5.0579331,4.182246 0.438376,0.902228 0.856994,2.301982 1.006241,3.364616 0.139713,0.994746 0.135216,3.673328 -0.0079,4.685875 -0.390336,2.762283 -1.734861,5.167786 -3.590677,6.424109 -0.746904,0.50563 -1.730611,0.950649 -2.6634144,1.204903 C 8.793125,34.147824 6.62713,34.222601 5.6817964,34.034569 l 3.4e-6,0 z m 3.3556346,-1.438055 c 1.9081204,-0.387501 3.4539394,-1.685379 4.2419084,-3.56153 0.966641,-2.301564 1.181798,-5.860254 0.522764,-8.64644 -0.659716,-2.78906 -2.257294,-4.542219 -4.6514889,-5.104479 -0.9420236,-0.221229 -2.7111605,-0.206493 -3.6461765,0.03037 -1.3767281,0.34876 -2.6686991,1.271074 -3.4332699,2.45095 -0.9069331,1.399566 -1.30691577,3.025967 -1.38293535,5.623261 -0.0840528,2.871619 0.26360858,4.688807 1.22124465,6.383365 0.8440189,1.493508 2.1738705,2.484115 3.7862013,2.820342 0.8135276,0.169648 2.516431,0.17177 3.3417523,0.0042 l 0,-2e-6 z"
     id="path4252"
     inkscape:connector-curvature="0"
     inkscape:export-xdpi="90"
     inkscape:export-ydpi="90" /><path
     style="fill:#ffffff;fill-opacity:1;stroke:none;stroke-width:0;stroke-linejoin:round;stroke-miterlimit:4;stroke-dasharray:none;stroke-opacity:0.92901881"
     d="m 58.230034,27.983437 c -0.0021,-5.620294 -0.08543,-8.394002 -0.315549,-10.459893 -0.113541,-1.019535 -0.471296,-3.184777 -0.571177,-3.456894 -0.0516,-0.140692 0.03383,-0.156119 0.864783,-0.156119 l 0.922079,0 0.401921,2.81104 c 0.22782,1.593319 0.444777,2.798734 0.500838,2.782634 0.05443,-0.01563 0.177235,-0.226795 0.272964,-0.469272 1.062257,-2.690661 4.153594,-4.971608 7.185281,-5.301663 2.821051,-0.307122 4.858455,0.921474 5.649462,3.406743 0.351336,1.103853 0.412849,2.547589 0.414552,9.728297 l 0.0021,6.936091 -0.98369,0 -0.9837,0 0,-7.127363 c 0,-4.292319 -0.04282,-7.48675 -0.107655,-8.030874 -0.297888,-2.500881 -1.332565,-3.522776 -3.568302,-3.524221 -1.58325,-9.77e-4 -3.054118,0.577439 -4.405287,1.732525 -1.291194,1.103799 -2.139986,2.464579 -2.743773,4.398795 -0.50459,1.616408 -0.565181,2.441181 -0.565181,7.693753 l 0,4.857385 -0.98369,0 -0.983702,0 -0.0021,-5.820964 z"
     id="path4254"
     inkscape:connector-curvature="0"
     inkscape:export-xdpi="90"
     inkscape:export-ydpi="90" /><path
     style="fill:#ffffff;fill-opacity:1;stroke:none;stroke-width:0;stroke-linejoin:round;stroke-miterlimit:4;stroke-dasharray:none;stroke-opacity:0.92901881"
     d="m 44.822576,34.013755 c -3.623823,-0.664645 -6.112698,-3.27298 -6.882037,-7.212352 -0.823615,-4.217296 0.253553,-8.478947 2.733407,-10.814304 0.788508,-0.742564 1.530297,-1.21138 2.582315,-1.632044 2.213534,-0.885114 4.970905,-0.879655 7.033503,0.01392 3.038329,1.316292 4.662289,4.209139 4.988516,8.886317 l 0.06375,0.914404 -7.885076,0 -7.885077,0 0.07222,0.735984 c 0.193012,1.967126 0.691844,3.68638 1.430084,4.928862 0.498402,0.838828 1.676375,1.9127 2.523981,2.300928 2.301359,1.054094 6.125212,0.717898 9.539891,-0.838756 l 0.963688,-0.439313 0.413175,0.770497 c 0.227246,0.423773 0.399341,0.781419 0.382429,0.794769 -0.01691,0.01335 -0.692697,0.249655 -1.501734,0.525122 -1.591023,0.541721 -3.333837,0.96297 -4.619884,1.116653 -1.12023,0.133869 -3.084209,0.108683 -3.953174,-0.05069 z m 8.542616,-11.839596 c 0,-2.586838 -1.6116,-5.31652 -3.77946,-6.401566 -1.341708,-0.671541 -3.310391,-0.855715 -4.711382,-0.440758 -2.176245,0.644579 -3.855576,2.214665 -4.72964,4.421964 -0.290958,0.734764 -0.551249,1.940808 -0.551249,2.554176 l 0,0.434365 6.885865,0 6.885866,0 0,-0.568181 z"
     id="path4258"
     inkscape:connector-curvature="0"
     inkscape:export-xdpi="90"
     inkscape:export-ydpi="90" /><path
     style="opacity:1;fill:#ffffff;fill-opacity:1;stroke:none;stroke-width:0;stroke-linejoin:round;stroke-miterlimit:4;stroke-dasharray:none;stroke-opacity:0.92901881"
     d="m 135.15272,45.025798 c -0.0136,-0.0023 -0.0805,-0.01194 -0.1485,-0.02144 -0.50606,-0.07057 -0.95703,-0.330713 -1.27047,-0.732885 -0.33013,-0.423591 -0.53266,-0.982368 -0.63697,-1.757474 -0.0351,-0.260967 -0.0498,-1.185567 -0.0241,-1.515876 0.0896,-1.149124 0.40249,-1.939919 0.95759,-2.419616 0.33535,-0.289799 0.72296,-0.447558 1.22261,-0.497625 0.20087,-0.02013 0.49929,-0.01096 0.66938,0.02057 0.7588,0.140648 1.2862,0.633547 1.39767,1.306241 l 0.009,0.05368 -0.25067,-0.004 -0.25066,-0.004 -0.01,-0.07819 c -0.0225,-0.177477 -0.13016,-0.39283 -0.27026,-0.540203 -0.21371,-0.224788 -0.53951,-0.366828 -0.92848,-0.404784 -0.12475,-0.01217 -0.41069,0.01626 -0.57434,0.05711 -0.71216,0.1778 -1.16189,0.759317 -1.35962,1.758001 -0.10765,0.543756 -0.13972,1.358511 -0.0821,2.086772 0.065,0.821578 0.27217,1.429835 0.62211,1.826742 0.20783,0.235722 0.48512,0.397738 0.80879,0.472539 0.14112,0.03262 0.19167,0.03702 0.42422,0.03698 0.22003,-4.2e-5 0.286,-0.0052 0.39602,-0.03111 0.27402,-0.06447 0.50102,-0.182692 0.69459,-0.361741 0.1988,-0.183873 0.31708,-0.396406 0.36661,-0.658727 l 0.0278,-0.147361 0.24494,-2.9e-5 0.24493,-2.9e-5 -0.011,0.07463 c -0.0299,0.203991 -0.11942,0.45903 -0.22319,0.636347 -0.11973,0.204579 -0.33277,0.421686 -0.5385,0.548761 -0.22528,0.139149 -0.56681,0.250315 -0.88696,0.288677 -0.11265,0.0135 -0.55401,0.01908 -0.62055,0.0078 l 0,1e-5 z"
     id="path4268"
     inkscape:connector-curvature="0"
     inkscape:export-xdpi="90"
     inkscape:export-ydpi="90" /><path
     style="opacity:1;fill:#ffffff;fill-opacity:1;stroke:none;stroke-width:0;stroke-linejoin:round;stroke-miterlimit:4;stroke-dasharray:none;stroke-opacity:0.92901881"
     d="m 139.06334,41.550381 0,-3.354949 1.89756,0 1.89755,0 0,0.184807 0,0.184807 -1.65005,0 -1.65005,0 0,1.357617 0,1.357616 1.18803,0 1.18804,0 0,0.1777 0,0.177699 -1.18804,0 -1.18803,0 0,1.457128 0,1.457129 1.69131,0 1.69129,0 0,0.177698 0,0.177699 -1.93879,0 -1.93882,0 0,-3.354951 z"
     id="path4270"
     inkscape:connector-curvature="0"
     inkscape:export-xdpi="90"
     inkscape:export-ydpi="90" /><path
     style="opacity:1;fill:#ffffff;fill-opacity:1;stroke:none;stroke-width:0;stroke-linejoin:round;stroke-miterlimit:4;stroke-dasharray:none;stroke-opacity:0.92901881"
     d="m 144.4095,41.550381 0,-3.354949 0.9529,1.2e-5 c 0.52409,7e-6 1.03458,0.0065 1.13441,0.01444 1.04245,0.08288 1.70868,0.678136 1.80779,1.615192 0.0328,0.310452 -0.005,0.600822 -0.11622,0.888454 -0.11183,0.28961 -0.26067,0.504494 -0.49432,0.713617 -0.22025,0.19713 -0.42934,0.320824 -0.71495,0.422923 -0.0861,0.03077 -0.15151,0.06245 -0.1505,0.07285 8.3e-4,0.01012 0.45825,0.670909 1.01615,1.46842 0.55788,0.797511 1.02327,1.464414 1.03418,1.482006 l 0.0198,0.03198 -0.30997,-5.04e-4 -0.30997,-5.05e-4 -0.96528,-1.448939 -0.96527,-1.448939 -0.72189,-5.77e-4 -0.7219,-5.77e-4 0,1.450021 0,1.45002 -0.24751,0 -0.24749,0 0,-3.35495 z m 2.12875,0.05391 c 0.19638,-0.04546 0.34005,-0.101191 0.49654,-0.192616 0.13053,-0.07626 0.33969,-0.254059 0.42212,-0.358843 0.37648,-0.478528 0.44287,-1.292346 0.14878,-1.823575 -0.13867,-0.250472 -0.32416,-0.414965 -0.59737,-0.529754 -0.29186,-0.122628 -0.31298,-0.124807 -1.26641,-0.130826 l -0.8374,-0.0053 0,1.544501 0,1.544502 0.7384,-0.0059 c 0.72937,-0.0058 0.74031,-0.0064 0.89534,-0.04222 z"
     id="path4272"
     inkscape:connector-curvature="0"
     inkscape:export-xdpi="90"
     inkscape:export-ydpi="90" /><path
     style="opacity:1;fill:#ffffff;fill-opacity:1;stroke:none;stroke-width:0;stroke-linejoin:round;stroke-miterlimit:4;stroke-dasharray:none;stroke-opacity:0.92901881"
     d="m 151.58541,41.890497 c -0.78515,-1.697253 -1.4345,-3.085436 -1.44302,-3.084849 -0.01,6.89e-4 -0.017,1.164225 -0.0196,3.050376 l -0.004,3.049308 -0.24746,0 -0.24747,0 0,-3.354951 0,-3.354949 0.36051,0 0.36052,0 0.14264,0.309196 c 0.0785,0.170058 0.67539,1.465491 1.32655,2.878743 0.65118,1.41325 1.19142,2.567403 1.20053,2.564783 0.0111,-0.0032 0.0179,-0.968356 0.0207,-2.878743 l 0.004,-2.873979 0.24748,0 0.24746,0 0,3.39049 0,3.39049 -0.26067,0 -0.26065,0 -1.42754,-3.085915 z"
     id="path4274"
     inkscape:connector-curvature="0"
     inkscape:export-xdpi="90"
     inkscape:export-ydpi="90" /><path
     style="fill:#a0a0a0;stroke:none;stroke-width:1px;stroke-linecap:butt;stroke-linejoin:miter;stroke-opacity:1"
     d="m 83.32247,33.896754 c -3.141953,-0.578811 -5.658832,-2.840034 -6.714497,-6.03246 -0.730816,-2.210089 -0.809221,-5.227858 -0.194017,-7.468323 0.828535,-3.017443 2.95466,-5.30777 5.852995,-6.305042 1.168494,-0.402064 1.984036,-0.512329 3.433893,-0.464284 1.468427,0.04866 2.205565,0.204168 3.535897,0.745928 0.480629,0.19573 0.911174,0.336016 0.956746,0.311747 0.04653,-0.02479 0.08279,-1.874947 0.08279,-4.221077 l 0,-4.1769488 1.493449,0 1.493449,0 0.0025,10.8362208 c 8.35e-4,6.09919 0.04152,11.362834 0.09247,12.040883 0.09682,1.287862 0.320778,2.508322 0.68651,3.740994 0.124663,0.42018 0.198247,0.790359 0.16351,0.822618 -0.03467,0.03226 -0.622467,0.119291 -1.306071,0.1934 -0.995911,0.107967 -1.257433,0.1145 -1.315979,0.03289 -0.04018,-0.05602 -0.167537,-0.41446 -0.283001,-0.796527 -0.267587,-0.885444 -0.42565,-1.217815 -0.578139,-1.215688 -0.06675,9.77e-4 -0.541474,0.293031 -1.054842,0.64911 -1.044718,0.724613 -2.144789,1.224363 -2.980708,1.354091 -0.779085,0.120904 -2.591031,0.09532 -3.366473,-0.04752 z m 2.837264,-2.000588 c 0.87292,-0.177274 1.764745,-0.613906 2.425509,-1.187502 0.677781,-0.588373 0.833905,-0.777482 1.322755,-1.6022 l 0.368363,-0.621449 0,-5.588687 0,-5.588687 -0.676719,-0.410631 c -0.817114,-0.495814 -2.000453,-1.000216 -2.636872,-1.123966 -0.666518,-0.129601 -2.141254,-0.107716 -2.791633,0.04143 -1.852373,0.424786 -3.564126,1.841263 -4.354407,3.603267 -0.627488,1.39906 -0.76225,2.033537 -0.811364,3.819764 -0.02632,0.959285 -7.36e-4,1.994791 0.06223,2.512724 0.353136,2.9056 2.037479,5.193906 4.381291,5.952305 1.02602,0.33199 1.768462,0.385024 2.710873,0.193635 z"
     id="path3438"
     inkscape:connector-curvature="0" /><path
     style="fill:#a0a0a0;stroke:none;stroke-width:1px;stroke-linecap:butt;stroke-linejoin:miter;stroke-opacity:1"
     d="m 109.65775,33.447208 c -0.12733,-0.364894 -0.32066,-0.925803 -0.42964,-1.246467 -0.10898,-0.320665 -0.22227,-0.583025 -0.25174,-0.583025 -0.0295,0 -0.33222,0.245829 -0.67277,0.546287 -1.09596,0.966932 -2.40819,1.606247 -3.65447,1.780449 -0.99877,0.139607 -2.48714,0.106674 -3.30292,-0.07308 -1.09479,-0.241233 -1.761206,-0.585793 -2.723939,-1.408356 -1.655034,-1.414091 -2.155346,-2.677417 -2.069656,-5.226051 0.03784,-1.124566 0.07603,-1.375706 0.300161,-1.97221 1.021784,-2.719565 3.023445,-4.243647 6.024584,-4.587184 1.274,-0.145831 2.67523,0.03034 4.5443,0.571319 0.60174,0.174171 1.13202,0.316673 1.17836,0.316673 0.0487,0 0.0664,-0.653627 0.0418,-1.548031 -0.0363,-1.325396 -0.0714,-1.616491 -0.24366,-2.024043 -0.41682,-0.985921 -1.03114,-1.5908 -2.01615,-1.985147 -1.49075,-0.59682 -3.24367,-0.432729 -6.1879,0.579252 -0.643957,0.221345 -1.220291,0.386099 -1.280715,0.36612 -0.109723,-0.03628 -0.6101,-1.633535 -0.609895,-1.94685 8.1e-5,-0.138697 0.177909,-0.219786 1.096864,-0.500185 2.261936,-0.69018 3.485166,-0.90242 5.201046,-0.90242 1.77605,0 2.9359,0.319373 4.20304,1.157335 1.01389,0.670483 1.97409,1.838357 2.43318,2.959373 0.27648,0.675117 0.32405,1.464641 0.41267,6.847664 0.0494,3.000683 0.13382,5.828533 0.1876,6.284109 0.0538,0.455575 0.23804,1.320695 0.40943,1.922487 0.19912,0.699182 0.27415,1.09509 0.20783,1.096717 -0.0571,0.0014 -0.5448,0.05454 -1.08384,0.118079 -1.57506,0.185665 -1.44509,0.226835 -1.71364,-0.542817 z m -5.22758,-1.627199 c 1.07162,-0.274177 2.22674,-1.085887 3.5264,-2.478024 l 0.70792,-0.758294 0,-2.456599 0,-2.456601 -0.76631,-0.252116 c -3.09314,-1.017614 -5.56755,-0.876544 -6.97066,0.397401 -1.533289,1.392139 -1.990845,4.487987 -0.936669,6.337483 0.509669,0.894166 1.496159,1.613279 2.451899,1.787313 0.48392,0.08812 1.38555,0.03342 1.98742,-0.120563 z"
     id="path3440"
     inkscape:connector-curvature="0" /><path
     style="fill:#a0a0a0;stroke:none;stroke-width:1px;stroke-linecap:butt;stroke-linejoin:miter;stroke-opacity:1"
     d="m 142.34302,34.21655 c 0.0674,-0.02323 0.14789,-0.02038 0.17891,0.0064 0.0309,0.02672 -0.0241,0.04573 -0.12251,0.04224 -0.10874,-0.0038 -0.13086,-0.02291 -0.0564,-0.04858 z"
     id="path3444"
     inkscape:connector-curvature="0" /><path
     style="fill:#a0a0a0;stroke:none;stroke-width:1px;stroke-linecap:butt;stroke-linejoin:miter;stroke-opacity:1"
     d="m 123.95016,33.797989 c -1.56951,-0.444964 -2.78521,-1.679379 -3.33519,-3.386531 -0.28215,-0.875791 -0.356,-2.380771 -0.42623,-8.685059 -0.0336,-3.029718 -0.0642,-5.553814 -0.0678,-5.609101 -0.005,-0.07778 -0.5732,-0.100521 -2.51118,-0.100521 l -2.50465,0 -7e-5,-1.025319 -8e-5,-1.02532 2.47011,0.02599 2.47011,0.02599 0.064,-0.220095 c 0.0352,-0.121052 0.0419,-1.290759 0.015,-2.599349 -0.0269,-1.3085893 -0.0281,-2.5873332 -0.003,-2.8416529 l 0.0467,-0.4623983 1.38855,0 c 1.25666,0 1.38944,0.013366 1.39788,0.1407303 0.005,0.077403 0.0367,1.4145638 0.07,2.9714729 0.041,1.91344 0.0945,2.859855 0.16503,2.920582 0.0746,0.0642 1.25329,0.08254 4.13039,0.06428 l 4.02603,-0.02556 -4e-5,1.025319 -6e-5,1.02532 -4.13048,0 -4.13049,0 0.0163,6.172022 c 0.009,3.394611 0.0409,6.479616 0.071,6.855567 0.0302,0.375949 0.0549,0.764968 0.055,0.864484 1.1e-4,0.09952 0.0404,0.180939 0.0895,0.180939 0.0492,0 0.0673,0.04961 0.0402,0.110257 -0.027,0.06064 0.009,0.160481 0.0805,0.221865 0.0713,0.06138 0.11216,0.156501 0.091,0.211369 -0.0212,0.05487 0.0276,0.121667 0.10864,0.14844 0.0809,0.02677 0.12844,0.07488 0.10549,0.106906 -0.0592,0.08248 0.5085,0.658717 0.60061,0.609673 0.0419,-0.02227 0.0984,0.0098 0.12584,0.07131 0.0592,0.13281 0.95049,0.403785 1.08776,0.330692 0.0525,-0.02795 0.0954,-0.0125 0.0954,0.03435 0,0.104763 1.08675,0.116269 1.16133,0.01229 0.0287,-0.04008 0.13625,-0.05395 0.23887,-0.03083 0.10267,0.02312 0.18661,0.01068 0.18666,-0.02765 3e-5,-0.03833 0.11424,-0.0754 0.25381,-0.08239 0.13956,-0.007 0.26912,-0.05244 0.28792,-0.101022 0.0188,-0.04858 0.0727,-0.06788 0.11956,-0.04287 0.0469,0.02499 0.0853,0.005 0.0853,-0.04445 0,-0.04945 0.0386,-0.06934 0.0858,-0.04422 0.0472,0.02514 0.1522,-0.01151 0.23335,-0.08142 0.0811,-0.06991 0.14753,-0.105156 0.14753,-0.07833 0,0.08623 0.31483,-0.09302 0.77046,-0.438667 0.24406,-0.185154 0.42141,-0.367809 0.39408,-0.405896 -0.0273,-0.03809 0.0356,-0.108527 0.13962,-0.156533 0.10408,-0.04801 0.18929,-0.131585 0.18929,-0.185733 0,-0.05415 0.0857,-0.144529 0.19031,-0.200844 0.10462,-0.05631 0.16791,-0.133603 0.14055,-0.171753 -0.0273,-0.03814 0.0157,-0.09099 0.0956,-0.117426 0.08,-0.02644 0.12198,-0.08072 0.0934,-0.120627 -0.0286,-0.03992 0.0134,-0.09419 0.0933,-0.120625 0.08,-0.02643 0.11925,-0.08451 0.0872,-0.129053 -0.032,-0.04454 -0.0144,-0.08098 0.0389,-0.08098 0.0533,0 0.18408,-0.147149 0.29058,-0.326999 0.19288,-0.325714 0.19554,-0.326899 0.67862,-0.301565 0.26675,0.01399 0.506,0.04664 0.53166,0.07255 0.0704,0.07104 1.32304,0.327556 1.37615,0.281798 0.0254,-0.02188 0.10777,0.01324 0.18297,0.07807 0.12017,0.103525 0.095,0.183716 -0.20765,0.659613 -1.14814,1.805889 -2.93953,3.244768 -4.84945,3.895191 -0.73187,0.249236 -0.78857,0.255657 -2.47583,0.280323 -1.49346,0.02184 -1.79918,0.0047 -2.2624,-0.126597 z"
     id="path3446"
     inkscape:connector-curvature="0" /><path
     style="fill:#a0a0a0;stroke:none;stroke-width:1px;stroke-linecap:butt;stroke-linejoin:miter;stroke-opacity:1"
     d=""
     id="path3448"
     inkscape:connector-curvature="0"
     transform="translate(-23.858,-13.136)" /><path
     style="fill:#a0a0a0;stroke:none;stroke-width:1px;stroke-linecap:butt;stroke-linejoin:miter;stroke-opacity:1"
     d="m 148.81919,33.849293 c -0.46613,-1.450933 -0.71604,-2.070742 -0.83496,-2.070742 -0.0733,0 -0.45512,0.249153 -0.84838,0.553674 -1.5788,1.222564 -2.66172,1.613978 -4.63532,1.675407 -2.22505,0.06926 -3.43114,-0.313718 -4.85745,-1.542405 -1.29273,-1.113603 -1.89636,-2.248931 -2.09636,-3.942993 -0.43436,-3.678772 1.84247,-6.923362 5.41852,-7.721713 0.67909,-0.151603 2.67396,-0.154112 3.64696,-0.0046 0.39137,0.06014 1.21826,0.25791 1.83756,0.43949 0.61929,0.181577 1.14966,0.330141 1.17859,0.330141 0.0856,0 0.0561,-2.40907 -0.0363,-2.959839 -0.25558,-1.522756 -1.58954,-2.664982 -3.3987,-2.910206 -1.23938,-0.167991 -3.04376,0.181902 -5.37408,1.042104 -0.53143,0.196175 -0.90393,0.293238 -0.9388,0.244631 -0.0318,-0.04432 -0.17999,-0.518693 -0.32934,-1.054169 -0.26606,-0.954011 -0.26792,-0.975863 -0.0921,-1.086572 0.23364,-0.147192 2.78755,-0.865244 3.68811,-1.036944 1.08613,-0.20708 3.27344,-0.250988 4.14842,-0.08328 1.96117,0.375908 3.62915,1.567597 4.61992,3.300701 0.66987,1.171773 0.65336,1.019444 0.75371,6.956089 0.10959,6.483591 0.16549,7.303317 0.59747,8.764778 0.17639,0.596717 0.31262,1.091909 0.30273,1.100429 -0.0316,0.02716 -2.23859,0.267361 -2.45668,0.267361 -0.15691,0 -0.23058,-0.06561 -0.29347,-0.261356 z m -5.88803,-1.90981 c 0.69881,-0.111635 1.69555,-0.552723 2.42783,-1.074377 0.34003,-0.242241 1.00085,-0.850523 1.46846,-1.351737 l 0.85019,-0.911299 0.003,-2.465789 0.003,-2.46579 -0.77006,-0.25577 c -0.42353,-0.140673 -1.16909,-0.345369 -1.6568,-0.454878 -0.78572,-0.176428 -1.03561,-0.195729 -2.19351,-0.169434 -1.2105,0.02749 -1.34802,0.04673 -1.86681,0.261126 -1.16604,0.481884 -2.1486,1.627571 -2.51986,2.938196 -0.19344,0.682899 -0.28186,2.250418 -0.15869,2.813383 0.33428,1.527846 1.36301,2.691353 2.70695,3.061582 0.6155,0.169559 1.00818,0.186743 1.70901,0.07479 l 0,0 z"
     id="path3450"
     inkscape:connector-curvature="0" /><path
     style="fill:#a0a0a0;stroke:none;stroke-width:1px;stroke-linecap:butt;stroke-linejoin:miter;stroke-opacity:1"
     d=""
     id="path3454"
     inkscape:connector-curvature="0"
     transform="translate(-23.858,-13.136)" /><path
     style="fill:#a0a0a0;stroke:none;stroke-width:1px;stroke-linecap:butt;stroke-linejoin:miter;stroke-opacity:1"
     d=""
     id="path3456"
     inkscape:connector-curvature="0"
     transform="translate(-23.858,-13.136)" /><path
     style="fill:#a0a0a0;stroke:none;stroke-width:1px;stroke-linecap:butt;stroke-linejoin:miter;stroke-opacity:1"
     d=""
     id="path3460"
     inkscape:connector-curvature="0"
     transform="translate(-23.858,-13.136)" /><path
     style="fill:#ffffff;fill-opacity:1;stroke:none;stroke-width:0;stroke-linejoin:round;stroke-miterlimit:4;stroke-dasharray:none;stroke-opacity:1"
     d="m 19.500263,40.983456 c -0.01196,-0.330909 -0.02204,-2.27884 -0.02239,-4.328737 -9.81e-4,-5.612796 -0.06006,-16.078011 -0.09843,-17.431204 -0.01862,-0.656774 -0.04938,-1.366857 -0.06836,-1.577963 -0.07054,-0.784781 -0.543612,-2.90933 -0.771571,-3.465145 -0.02807,-0.06843 -0.05103,-0.140482 -0.05103,-0.160125 0,-0.02274 0.110854,-0.05258 0.305259,-0.08215 0.473201,-0.07198 1.154049,-0.15867 1.24878,-0.159003 l 0.08549,-3.01e-4 0.220744,0.945358 c 0.441389,1.89027 0.54109,2.247893 0.635381,2.279066 0.112436,0.03718 0.199125,-0.05309 0.621746,-0.647388 0.574101,-0.807308 1.588845,-1.567678 2.740265,-2.053338 0.971084,-0.409595 1.625802,-0.513359 3.077711,-0.487775 0.917289,0.01617 1.230237,0.05281 1.802003,0.211016 0.986659,0.273008 2.109172,0.786858 2.85901,1.308763 1.317195,0.916796 2.607832,2.717026 3.183703,4.440742 0.610954,1.828734 0.779544,4.581781 0.412959,6.743593 -0.621025,3.662297 -3.161127,6.42145 -6.73823,7.319314 -0.757869,0.190229 -1.08926,0.226821 -2.039583,0.225215 -0.714675,-0.0012 -0.906191,-0.01097 -1.270536,-0.06477 -1.341513,-0.198067 -2.329961,-0.530791 -3.596829,-1.210736 -0.308408,-0.165525 -0.57761,-0.300957 -0.598226,-0.300957 -0.130629,0 -0.127647,-0.09939 -0.13792,4.596094 l -0.0099,4.502076 -0.884179,0 -0.884179,0 -0.02175,-0.601652 z m 7.719493,-8.214082 c 0.806173,-0.06779 1.429448,-0.223325 2.208545,-0.551118 2.319734,-0.975996 3.812826,-2.805862 4.385793,-5.375024 0.311653,-1.397441 0.359235,-3.498775 0.116695,-5.153407 -0.315253,-2.150663 -1.150449,-3.784623 -2.554861,-4.998271 -0.600543,-0.51897 -1.127287,-0.84144 -1.886733,-1.155049 -0.470308,-0.19421 -1.04376,-0.364286 -1.529435,-0.453603 -0.525043,-0.09656 -1.223546,-0.09101 -1.792216,0.01423 -0.904907,0.167467 -1.619362,0.414915 -2.118397,0.733695 -0.28075,0.179341 -1.092456,0.872806 -1.342075,1.146574 -0.567357,0.622248 -1.200254,1.518038 -1.301359,1.841921 -0.09716,0.311246 -0.11122,1.140574 -0.111681,6.58903 l -4.65e-4,5.502477 0.49479,0.311821 c 0.87096,0.548889 1.714966,0.963955 2.543404,1.2508 0.525112,0.18182 0.798425,0.239146 1.466435,0.307574 0.22902,0.02346 1.087711,0.01642 1.42156,-0.01165 z"
     id="path3491"
     inkscape:connector-curvature="0" /><path
     style="opacity:0;fill:#ffffff;fill-opacity:0"
     d="m 19.500268,41.179955 c -0.01183,-0.222834 -0.02176,-2.023631 -0.02205,-4.001772 -8.27e-4,-5.500478 -0.06107,-16.34525 -0.09895,-17.812509 -0.03671,-1.422127 -0.06659,-1.854484 -0.166644,-2.411381 -0.170778,-0.950556 -0.483376,-2.256373 -0.644465,-2.692124 -0.04335,-0.117281 -0.07902,-0.227902 -0.07925,-0.245824 -2.41e-4,-0.01864 0.123152,-0.05195 0.288338,-0.07783 0.378417,-0.0593 1.179592,-0.15968 1.274471,-0.15968 0.07178,0 0.08541,0.04584 0.365495,1.229675 0.454173,1.919665 0.502789,2.064065 0.669091,1.987385 0.03564,-0.01643 0.144025,-0.13606 0.240876,-0.265848 0.632211,-0.847208 0.873086,-1.105385 1.389844,-1.489669 0.53863,-0.40055 0.996912,-0.669264 1.548289,-0.90784 0.990161,-0.428437 1.65642,-0.539614 3.100432,-0.517361 0.979121,0.0151 1.273811,0.04837 1.856906,0.2097 0.896623,0.24808 1.934281,0.703454 2.656221,1.165676 0.351698,0.225177 1.095337,0.872221 1.416419,1.232438 0.77247,0.866617 1.399629,1.873462 1.810505,2.906591 0.780994,1.963775 0.9954,5.009739 0.525129,7.460269 -0.650644,3.390438 -3.043482,6.006606 -6.367625,6.961934 -0.831122,0.238857 -1.466406,0.32734 -2.350219,0.32734 -1.673349,0 -3.201709,-0.398992 -4.815677,-1.257172 -0.311138,-0.165438 -0.596103,-0.309108 -0.633259,-0.319269 -0.158503,-0.04334 -0.153359,-0.186807 -0.164819,4.597318 l -0.01073,4.485112 -0.883398,0 -0.883398,0 -0.02151,-0.405153 z m 8.195483,-8.466266 c 1.278914,-0.190562 2.607585,-0.791564 3.642588,-1.647663 1.484606,-1.227985 2.367084,-2.976867 2.642301,-5.236464 0.124232,-1.01999 0.131723,-2.612388 0.01701,-3.615574 -0.288079,-2.519243 -1.13085,-4.257976 -2.714043,-5.599376 -0.887709,-0.752134 -2.086869,-1.303502 -3.332056,-1.532064 -0.485269,-0.08908 -1.191567,-0.08911 -1.691339,-7.9e-5 -1.008609,0.17967 -1.66758,0.406141 -2.227565,0.765555 -0.331016,0.212457 -1.084584,0.865729 -1.384765,1.20046 -0.53873,0.600738 -1.143464,1.468749 -1.238639,1.777892 -0.0963,0.312825 -0.113434,1.332222 -0.113198,6.737425 l 2.35e-4,5.345175 0.221401,0.14125 c 1.536762,0.980438 2.835169,1.544468 3.864501,1.678746 0.503502,0.06568 0.51371,0.06615 1.22454,0.05592 0.502077,-0.0072 0.782886,-0.02558 1.089032,-0.0712 l -1e-6,0 z"
     id="path3493"
     inkscape:connector-curvature="0" /><path
     style="opacity:0;fill:#ffffff;fill-opacity:0"
     d="M 6.096628,34.020087 C 5.2896618,33.927319 4.1357125,33.561303 3.3115357,33.136696 2.5418471,32.740159 1.6656568,32.057783 1.1197586,31.429743 c -1.24874513,-1.436646 -2.03245738,-3.380876 -2.2327404,-5.538976 -0.1163479,-1.253671 -0.1087969,-3.188976 0.016023,-4.108333 0.14769472,-1.087784 0.43251054,-2.158902 0.82570553,-3.105247 0.20374189,-0.490369 0.70958719,-1.367572 1.02937564,-1.785078 0.82093943,-1.071792 1.85139623,-1.878498 3.06143363,-2.396686 1.2420742,-0.531907 2.3635289,-0.740913 3.8043927,-0.709027 1.2094526,0.02677 2.1760326,0.222217 3.2017927,0.647433 0.830995,0.34448 1.455566,0.731626 2.15158,1.333682 1.014875,0.877874 1.681691,1.826464 2.179586,3.100606 0.440523,1.12732 0.717025,2.275723 0.790664,3.283871 0.04381,0.59976 0.0433,2.824205 -7.93e-4,3.454461 -0.139336,1.991758 -0.880258,4.01842 -1.996218,5.460301 -0.82778,1.069538 -1.686888,1.731459 -2.982638,2.298051 -0.802455,0.350889 -1.4183908,0.524721 -2.1817219,0.615733 -0.4776087,0.05695 -2.3045687,0.08381 -2.6895772,0.03956 l -1.6e-6,0 z m 2.0625584,-1.249382 c 0.5337043,-0.03456 0.745742,-0.0642 1.1385333,-0.159166 1.8037793,-0.436111 3.3050583,-1.749246 4.0591723,-3.550468 1.05183,-2.51232 1.207966,-6.508837 0.363228,-9.297352 -0.843267,-2.783668 -2.776887,-4.450694 -5.4241752,-4.67633 -0.7475457,-0.06372 -1.7961562,-0.02667 -2.4530431,0.08666 -1.3493972,0.232811 -2.6883935,1.048287 -3.5623682,2.169555 -1.0035887,1.287555 -1.49723091,2.88902 -1.64829756,5.347367 -0.0507854,0.826338 -0.0218135,2.835387 0.0490064,3.398817 0.19586055,1.558345 0.50939002,2.563462 1.15836212,3.713497 1.0044933,1.78005 2.6465937,2.82245 4.6695412,2.964209 0.5006757,0.03508 1.1385851,0.03633 1.6500478,0.0032 z"
     id="path3495"
     inkscape:connector-curvature="0" /><path
     style="opacity:0;fill:#ffffff;fill-opacity:0"
     d="m 46.176286,34.062308 c -0.951903,-0.04547 -1.504047,-0.129665 -2.244065,-0.342201 -2.269778,-0.651885 -4.088711,-2.234936 -5.109329,-4.446744 -1.140931,-2.472544 -1.387508,-5.882389 -0.630107,-8.713555 0.602685,-2.252835 1.772235,-4.056657 3.379867,-5.212841 0.853345,-0.613713 1.983988,-1.099514 3.154798,-1.355516 0.739161,-0.161621 1.101943,-0.196402 2.059353,-0.19744 0.956901,-0.001 1.243616,0.02443 1.960905,0.174186 1.309247,0.273345 2.512126,0.870053 3.457882,1.715342 1.590178,1.421258 2.560424,3.640968 2.895748,6.624824 0.03882,0.345581 0.150207,1.656788 0.150207,1.768414 0,0.01253 -3.540949,0.02279 -7.868777,0.02279 -4.327829,0 -7.876521,0.01079 -7.885982,0.02398 -0.0229,0.03193 0.0952,1.156625 0.179606,1.710359 0.249124,1.634417 0.790435,3.23708 1.408392,4.169822 0.452933,0.683657 1.337714,1.528836 2.071914,1.979179 0.481922,0.2956 1.250937,0.563058 1.978392,0.688073 0.638309,0.109695 1.012295,0.138733 1.767217,0.137214 1.328255,-0.0027 2.554643,-0.188255 3.993116,-0.604258 0.791908,-0.22902 1.392876,-0.452927 2.339294,-0.871566 0.442609,-0.195785 0.816788,-0.345555 0.831521,-0.332819 0.06212,0.05371 0.745246,1.366203 0.720159,1.383594 -0.03957,0.02746 -1.839703,0.634088 -2.290432,0.771872 -1.380071,0.421888 -2.873665,0.745698 -3.939821,0.854154 -0.397998,0.04049 -1.929043,0.07467 -2.379858,0.05313 z m 7.253402,-11.810809 c 0.01376,-0.790797 -0.05648,-1.297027 -0.289996,-2.089735 -0.175923,-0.597094 -0.385768,-1.082525 -0.725156,-1.677476 -0.718468,-1.25948 -1.725607,-2.259375 -2.800133,-2.779981 -1.228775,-0.59534 -2.876177,-0.813524 -4.246641,-0.562432 -1.076091,0.197158 -2.257419,0.775798 -3.162136,1.548884 -1.441971,1.23217 -2.347364,2.951312 -2.644941,5.02216 -0.05106,0.355302 -0.06934,1.053155 -0.02851,1.088327 0.01215,0.01046 3.141871,0.01579 6.954951,0.01184 l 6.932874,-0.0072 0.0098,-0.55442 z"
     id="path3497"
     inkscape:connector-curvature="0" /><path
     style="opacity:0;fill:#ffffff;fill-opacity:0"
     d="m 58.310455,28.314576 c -0.02938,-8.288148 -0.09909,-9.770385 -0.601305,-12.79247 -0.08109,-0.487664 -0.177951,-1.023227 -0.215342,-1.190139 -0.0374,-0.166911 -0.05844,-0.311671 -0.04684,-0.321688 0.01161,-0.01001 0.37535,-0.02274 0.808278,-0.02826 l 0.787147,-0.01004 0.01908,0.09533 c 0.01084,0.05243 0.130931,0.875787 0.267652,1.829673 0.263726,1.839944 0.439097,2.928433 0.542414,3.366667 0.07524,0.319039 0.131778,0.374277 0.26093,0.25484 0.06873,-0.06358 0.134921,-0.192471 0.384988,-0.749897 0.818923,-1.825482 2.639718,-3.49645 4.7673,-4.375024 1.376202,-0.568293 2.841628,-0.761183 4.106836,-0.540573 0.302789,0.05279 0.844888,0.210062 1.088179,0.315688 1.085762,0.471387 1.941742,1.37238 2.408635,2.535297 0.529156,1.317988 0.577952,2.302473 0.579059,11.68166 l 6.38e-4,5.352283 -0.886062,0 -0.886054,0 -0.0206,-6.390042 c -0.02104,-6.502857 -0.0489,-8.302924 -0.138163,-8.927231 -0.280118,-1.957897 -1.028345,-2.932245 -2.508027,-3.265974 -0.281713,-0.06354 -0.421025,-0.07644 -0.956739,-0.08861 -0.692871,-0.01573 -1.118752,0.02816 -1.716057,0.176894 -1.763932,0.439231 -3.50514,1.773959 -4.580797,3.511415 -0.595852,0.962434 -1.142885,2.38787 -1.391195,3.625052 -0.217012,1.08128 -0.247801,1.877442 -0.271327,7.015541 l -0.01984,4.342954 -0.881738,0 -0.881737,0 -0.01919,-5.423362 z"
     id="path3499"
     inkscape:connector-curvature="0"
     inkscape:export-xdpi="90"
     inkscape:export-ydpi="90" /></svg>